Coordinates
version=1
nRows=8
nColumns=46
inDegrees=yes

Units are S.I. units (second, meters, Newtons, ...)
Angles are in degrees.

endheader
time	pelvis_tilt	pelvis_list	pelvis_rotation	pelvis_tx	pelvis_ty	pelvis_tz	bb_angle	bb_tx	bb_ty	bb_tz	hip_flexion_r	hip_adduction_r	hip_rotation_r	knee_angle_r	knee_angle_r_beta	ankle_angle_r	subtalar_angle_r	mtp_angle_r	crank_angle_r	hip_flexion_l	hip_adduction_l	hip_rotation_l	knee_angle_l	knee_angle_l_beta	ankle_angle_l	subtalar_angle_l	mtp_angle_l	crank_angle_l	lumbar_extension	lumbar_bending	lumbar_rotation	arm_flex_r	arm_add_r	arm_rot_r	elbow_flex_r	pro_sup_r	wrist_flex_r	wrist_dev_r	arm_flex_l	arm_add_l	arm_rot_l	elbow_flex_l	pro_sup_l	wrist_flex_l	wrist_dev_l
      7.50500000	    -12.33966087	      5.79818868	      1.45026368	      0.12644564	      1.13184989	     -0.26315209	      0.00000000	      0.50000000	      0.00000000	      0.25000000	     52.16381849	    -13.37810137	     -1.25702643	     75.68455976	      1.32094476	     -1.87309637	     -5.32688662	      0.00000000	      0.00000000	     76.16952904	      0.10902359	      1.50996344	     81.29858169	      1.41892793	     16.27733339	     -1.98941498	      0.00000000	      0.00000000	    -67.31854028	      1.02031473	     -3.45101781	     88.40313705	    -33.31930050	     42.42682893	     85.41830588	     42.23198165	      0.00000000	      0.00000000	     86.35440485	    -32.67211747	     48.24974268	     71.14481460	     51.59561531	      0.00000000	      0.00000000
      7.51000000	    -12.04195773	      5.18902267	      1.39836295	      0.12703003	      1.12988637	     -0.26377669	      0.00000000	      0.50000000	      0.00000000	      0.25000000	     52.93276375	    -12.91867103	     -1.18066605	     78.30752523	      1.36672414	     -1.39373280	     -5.64497126	      0.00000000	      0.00000000	     74.57274204	     -0.07958461	      1.88111779	     79.17111553	      1.38179664	     16.72271425	     -2.10818098	      0.00000000	      0.00000000	    -67.28503384	      1.50981794	     -2.78296674	     88.29485550	    -33.22113442	     42.58294767	     85.44671288	     42.25291896	      0.00000000	      0.00000000	     86.04366145	    -32.77295705	     48.27307259	     71.15369010	     51.60196692	      0.00000000	      0.00000000
      7.51500000	    -11.69005243	      4.69455801	      1.42445032	      0.12757923	      1.12809519	     -0.26405617	      0.00000000	      0.50000000	      0.00000000	      0.25000000	     53.65948955	    -12.60786424	     -1.16246998	     80.90410510	      1.41204301	     -0.85138470	     -5.92975275	      0.00000000	      0.00000000	     72.94960582	     -0.22119468	      2.21905357	     77.09604560	      1.34557984	     16.95988506	     -1.98270449	      0.00000000	      0.00000000	    -67.36157053	      1.92514904	     -2.25845457	     88.18037424	    -33.16864047	     42.76404349	     85.44274117	     42.27107809	      0.00000000	      0.00000000	     85.70893412	    -32.80439018	     48.29850873	     71.19244079	     51.61384807	      0.00000000	      0.00000000
      7.52000000	    -11.07166759	      4.79408957	      1.59015843	      0.12837790	      1.12731274	     -0.26466023	      0.00000000	      0.50000000	      0.00000000	      0.25000000	     54.08988760	    -12.98688979	     -0.86174077	     83.41918492	      1.45593944	      0.17959520	     -5.70402625	      0.00000000	      0.00000000	     70.82630648	      0.04100040	      2.01907357	     74.80773356	      1.30564126	     17.22589608	     -1.74567724	      0.00000000	      0.00000000	    -67.73782145	      2.12753822	     -2.29967077	     88.17601574	    -33.48475591	     43.23887429	     85.42880401	     42.32372337	      0.00000000	      0.00000000	     85.30014678	    -32.55071473	     48.06335901	     71.35195950	     51.61237451	      0.00000000	      0.00000000
      7.52500000	    -10.81773994	      4.39266608	      1.47345980	      0.12906798	      1.12584173	     -0.26512212	      0.00000000	      0.50000000	      0.00000000	      0.25000000	     54.84797395	    -12.66220502	     -0.71355635	     85.76720310	      1.49692008	      1.09731613	     -5.63948477	      0.00000000	      0.00000000	     69.27869404	     -0.20957544	      2.23910896	     72.77250121	      1.27011975	     17.05256172	     -1.60120198	      0.00000000	      0.00000000	    -67.78429342	      2.39491018	     -1.81730027	     88.19515876	    -33.56831334	     43.57631654	     85.50667964	     42.38095028	      0.00000000	      0.00000000	     84.88558090	    -32.47491334	     47.78753085	     71.44941835	     51.60014262	      0.00000000	      0.00000000
      7.53000000	    -10.53213276	      4.01976451	      1.49401577	      0.12962085	      1.12439788	     -0.26558766	      0.00000000	      0.50000000	      0.00000000	      0.25000000	     55.58249125	    -12.48035193	     -0.64543522	     88.07577622	      1.53721229	      1.94277650	     -5.63102538	      0.00000000	      0.00000000	     67.73400106	     -0.37287557	      2.49215097	     70.80274524	      1.23574102	     16.77659177	     -1.20249718	      0.00000000	      0.00000000	    -67.84255915	      2.73680699	     -1.39985727	     88.18191210	    -33.63528280	     43.74237968	     85.53749432	     42.41239460	      0.00000000	      0.00000000	     84.52131668	    -32.39328692	     47.61680120	     71.55612720	     51.60267572	      0.00000000	      0.00000000
      7.53500000	    -10.26060859	      3.75246354	      1.49401916	      0.12989356	      1.12322039	     -0.26602122	      0.00000000	      0.50000000	      0.00000000	      0.25000000	     56.38151156	    -12.35169769	     -0.47413354	     90.32360720	      1.57644434	      2.87814334	     -5.48262795	      0.00000000	      0.00000000	     66.17777647	     -0.54961212	      2.65279300	     68.77617797	      1.20037075	     16.26063786	     -0.53137538	      0.00000000	      0.00000000	    -67.95512537	      2.97529831	     -1.06752217	     88.20555071	    -33.72039606	     43.76374948	     85.55816416	     42.43784397	      0.00000000	      0.00000000	     84.22404606	    -32.22388228	     47.27016181	     71.68377838	     51.57332224	      0.00000000	      0.00000000
      7.54000000	     -9.93714018	      3.53594740	      1.70401574	      0.13003764	      1.12234236	     -0.26623039	      0.00000000	      0.50000000	      0.00000000	      0.25000000	     57.08000170	    -12.38781593	     -0.42303173	     92.52590705	      1.61488172	      3.83329037	     -5.47456276	      0.00000000	      0.00000000	     64.55782102	     -0.58226537	      2.69749146	     66.70106649	      1.16415322	     15.55171221	     -0.24873543	      0.00000000	      0.00000000	    -68.14701971	      3.32891366	     -0.82477149	     88.23201501	    -33.80220309	     43.71565022	     85.57628493	     42.45364259	      0.00000000	      0.00000000	     84.00786433	    -32.05200055	     47.11875553	     71.85465633	     51.57533675	      0.00000000	      0.00000000
